<svg xmlns="http://www.w3.org/2000/svg" width="512" height="512" viewBox="0 0 512 512" role="img" aria-label="FinU logo">
  <rect width="512" height="512" rx="112" fill="#146C5F"/>
  <path d="M148 162c0-22 18-40 40-40h136c22 0 40 18 40 40v188c0 22-18 40-40 40H188c-22 0-40-18-40-40V162Z" fill="#E8FFF8"/>
  <path d="M188 184h136v42H188v-42Zm0 74h104v36H188v-36Zm0 68h72v36h-72v-36Z" fill="#146C5F"/>
  <circle cx="346" cy="324" r="62" fill="#F4B740"/>
  <path d="M329 323l14 14 31-35" fill="none" stroke="#0B3B34" stroke-width="16" stroke-linecap="round" stroke-linejoin="round"/>
</svg>
